iNFO:
General
 Format : AVI
 Format/Info : Audio Video Interleave
 Format profile : OpenDML
 File size : 2.41 GiB
 Duration : 1h 34mn
 Overall bit rate : 3 644 Kbps
 Writing application : VirtualDubMod 1.5.4.1 (build 2178/release)
 Writing library : VirtualDubMod build 2178/release

Video
 ID : 0
 Format : MPEG-4 Visual
 Format profile : Advanced Simple@L5
 Format settings, BVOP : Yes
 Format settings, QPel : No
 Format settings, GMC : No warppoints
 Format settings, Matrix : Custom
 Muxing mode : Packed bitstream
 Codec ID : XVID
 Codec ID/Hint : XviD
 Duration : 1h 34mn
 Bit rate : 3 185 Kbps
 Width : 1 280 pixels
 Height : 528 pixels
 Display aspect ratio : 2.40:1
 Frame rate : 23.976 fps
 Color space : YUV
 Chroma subsampling : 4:2:0
 Bit depth : 8 bits
 Scan type : Progressive
 Bits/(Pixel*Frame) : 0.197
 Stream size : 2.11 GiB (87%)
 Writing library : XviD 64

Audio
 ID : 1
 Format : AC-3
 Format/Info : Audio Coding 3
 Mode extension : CM (complete main)
 Codec ID : 2000
 Duration : 1h 34mn
 Bit rate mode : Constant
 Bit rate : 448 Kbps
 Channel(s) : 6 channels
 Channel positions : Front: L C R, Side: L R, LFE
 Sampling rate : 48.0 KHz
 Bit depth : 16 bits
 Stream size : 304 MiB (12%)
 Alignment : Split accross interleaves
 Interleave, duration : 42 ms (1.00 video frame)
 Interleave, preload duration : 500 ms
